<mxfile host="app.diagrams.net" modified="2023-11-14T10:27:34.767Z" agent="Mozilla/5.0 (Windows NT 10.0; Win64; x64) AppleWebKit/537.36 (KHTML, like Gecko) Chrome/119.0.0.0 Safari/537.36" version="22.1.0" etag="mhAHfxZWmNK6Haj1V7zT" type="github">
  <diagram name="Page-1" id="34hz9bC29nvqE_dl58Rr">
    <mxGraphModel>
      <root>
        <mxCell id="0" />
        <mxCell id="1" parent="0" />
      </root>
    </mxGraphModel>
  </diagram>
</mxfile>
